<?xml version="1.0" encoding="UTF-8"?>
<svg width="752pt" height="752pt" version="1.1" viewBox="0 0 752 752" xmlns="http://www.w3.org/2000/svg">
 <g fill="#4c25e0">
  <path d="m412.54 422.48h-73.074c-11.191 0-20.348-9.1562-20.348-20.348v-191.93c0-11.191 9.1562-20.348 20.348-20.348h73.07c11.191 0 20.348 9.1562 20.348 20.348v191.93c0.003907 11.191-9.1523 20.348-20.344 20.348z"/>
  <path d="m412.54 413.23h-64.379c-2.8672 0-5.7344 0.046875-8.6484 0h-0.69531c-0.23047 0-0.41797 0-0.64844-0.046875-1.0156-0.09375-0.83203-0.046875 0.55469 0.14062-0.046875 0.09375-1.6641-0.32422-1.8516-0.37109-0.60156-0.14062-1.1562-0.37109-1.7578-0.55469-1.7578-0.50781 0.60156 0.18359 0.50781 0.23047-0.09375 0.09375-3.6055-1.8516-3.6523-2.1719 0.32422 0.23047 0.60156 0.46094 0.92578 0.69531-0.32422-0.27734-0.60156-0.50781-0.87891-0.78516-0.41797-0.41797-0.83203-0.87891-1.25-1.2969-1.0156-1.0156 0.37109 0.46094 0.32422 0.46094-0.18359 0-0.92578-1.2969-1.0156-1.4805-0.32422-0.50781-0.60156-1.0625-0.87891-1.5742-1.0156-1.8047 0.55469 1.9414 0-0.046874-0.09375-0.37109-1.2031-3.4219-0.92578-3.6055 0.046875 0.41797 0.09375 0.78516 0.18359 1.2031-0.046875-0.41797-0.046875-0.83203-0.09375-1.2969v-0.64844-0.046875-0.46094-2.082-8-68.539-80.562-25.621-5.7812-0.78516c0-0.14062-0.046875-1.8945 0.09375-1.8945-0.046875 0.41797-0.09375 0.78516-0.18359 1.2031 0.046875-0.41797 0.14062-0.83203 0.23047-1.25 0.14062-0.60156 0.27734-1.2031 0.46094-1.8047 0.046874-0.18359 0.14062-0.37109 0.18359-0.60156 0.37109-0.92578 0.27734-0.78516-0.23047 0.50781-0.18359-0.14062 1.3398-2.4062 1.4805-2.6367 0.09375-0.18359 0.23047-0.32422 0.32422-0.50781 0.60156-0.78516 0.46094-0.64844-0.32422 0.41797-0.09375-0.14062 1.4805-1.6172 1.6641-1.7578-0.046875 0.046875 0.87891-0.83203 0.87891-0.78516-0.32422 0.23047-0.60156 0.46094-0.92578 0.69531 0.32422-0.23047 0.64844-0.46094 0.97266-0.69531 0.50781-0.32422 1.0156-0.64844 1.5742-0.92578 0.18359-0.09375 0.37109-0.18359 0.55469-0.27734 0.92578-0.41797 0.73828-0.37109-0.55469 0.18359 0.046875-0.32422 2.543-0.78516 2.9609-0.87891 0.18359-0.046874 0.41797-0.09375 0.60156-0.14062 1.0156-0.18359 0.83203-0.14063-0.60156 0.046874 0.046875-0.14062 1.7578-0.09375 1.8945-0.09375h2.082 13.645 40.605 14.105 2.5898c0.46094 0 0.87891 0.046876 1.3398 0.046876 2.1289 0-2.0352-0.50781 0.046875 0 0.41797 0.09375 0.83203 0.18359 1.2031 0.27734 0.60156 0.14062 1.1562 0.37109 1.7578 0.55469 1.9883 0.60156-1.7578-1.0156 0.046876 0 0.41797 0.23047 3.0977 1.3867 3.0977 1.8945-0.32422-0.23047-0.60156-0.46094-0.92578-0.69531 0.32422 0.27734 0.60156 0.50781 0.87891 0.78516 0.41797 0.41797 0.83203 0.87891 1.25 1.2969 1.4805 1.4336-1.0625-1.7109 0.046875 0 0.32422 0.50781 0.64844 1.0156 0.97266 1.5273 0.18359 0.37109 0.37109 0.73828 0.55469 1.0625 1.0156 1.8047-0.55469-1.9414 0 0.046876 0.18359 0.60156 0.37109 1.1562 0.55469 1.7578 0.09375 0.41797 0.18359 0.78516 0.27734 1.2031 0.18359 1.0156 0.14062 0.83203-0.046875-0.60156-0.18359 0.69531 0.09375 1.7109 0.09375 2.4961v5.4102 62.805 82.414c0 13.781 0.46094 27.609 0 41.348 0 0.23047 0 0.41797-0.046875 0.64844-0.09375 1.0156-0.046875 0.83203 0.14062-0.55469 0.09375 0.046875-0.27734 1.3398-0.32422 1.5273-0.14062 0.50781-0.27734 1.0156-0.41797 1.4805-0.046875 0.18359-0.14062 0.37109-0.18359 0.60156-0.37109 0.92578-0.27734 0.78516 0.23047-0.50781 0.23047 0.23047-1.6172 2.8672-1.8047 3.1445-0.97266 1.4805 0.32422-0.50781 0.32422-0.41797 0.046876 0.09375-1.1094 1.25-1.2031 1.3398-0.09375 0.09375-1.25 1.2969-1.3398 1.2031 0.32422-0.23047 0.60156-0.46094 0.92578-0.69531-0.32422 0.23047-0.64844 0.46094-0.97266 0.69531-0.14062 0.09375-2.4961 1.6172-2.6367 1.4805 0.37109-0.14062 0.73828-0.32422 1.1094-0.46094-0.37109 0.14062-0.78516 0.27734-1.1562 0.41797-0.60156 0.18359-1.2031 0.37109-1.8047 0.46094-0.18359 0.046875-0.41797 0.09375-0.60156 0.14062-1.0156 0.18359-0.83203 0.14062 0.60156-0.046875 0.003906 0.18359-1.7539 0.13672-1.8906 0.13672-4.8555 0.09375-9.4805 4.207-9.25 9.25 0.23047 4.9492 4.0703 9.3438 9.25 9.25 13.09-0.18359 24.836-8.8789 28.488-21.551 0.97266-3.2852 1.1094-6.707 1.1094-10.129v-20.441-78.992-74.875c0-5.0859 0.046875-10.176 0-15.262-0.046875-9.7578-4.625-18.406-12.348-24.234-5.6406-4.2539-12.395-5.6406-19.332-5.6406h-69.047c-7.8633 0-14.891 2.082-21.043 7.0742-6.7539 5.5508-10.453 14.152-10.5 22.801-0.046876 5.1797 0 10.359 0 15.539v74.828 79.086 20.258c0 3.5625 0.18359 7.168 1.2969 10.59 3.9766 12.348 15.309 20.766 28.305 20.949 21.969 0.32422 43.938 0 65.902 0h7.168c4.8555 0 9.4805-4.2539 9.25-9.25-0.23437-4.9961-4.0703-9.25-9.25-9.25z"/>
  <path d="m470.35 360.51v41.207c0 3.9766-0.14062 7.9531-0.64844 11.887 0.23047-1.6172 0.46094-3.2852 0.64844-4.9023-0.87891 6.4297-2.543 12.672-5.043 18.684 0.60156-1.4805 1.25-2.9609 1.8516-4.4414-2.543 6.0586-5.8281 11.699-9.8516 16.879 0.97266-1.25 1.9414-2.4961 2.9141-3.7461-3.8867 4.9492-8.3242 9.4336-13.32 13.32 1.25-0.97266 2.4961-1.9414 3.7461-2.9141-5.1797 3.9766-10.82 7.3086-16.879 9.8516 1.4805-0.60156 2.9609-1.25 4.4414-1.8516-6.0117 2.4492-12.254 4.1641-18.684 5.043 1.6172-0.23047 3.2852-0.46094 4.9023-0.64844-4.9492 0.64844-9.8984 0.64844-14.891 0.64844h-19.562-45.785c-5.5977 0-11.145 0.09375-16.742-0.64844 1.6172 0.23047 3.2852 0.46094 4.9023 0.64844-6.4297-0.87891-12.672-2.543-18.684-5.043 1.4805 0.60156 2.9609 1.25 4.4414 1.8516-6.0586-2.543-11.699-5.8281-16.879-9.8516 1.25 0.97266 2.4961 1.9414 3.7461 2.9141-4.9492-3.8867-9.4336-8.3242-13.32-13.32 0.97266 1.25 1.9414 2.4961 2.9141 3.7461-3.9766-5.1797-7.3086-10.82-9.8516-16.879 0.60156 1.4805 1.25 2.9609 1.8516 4.4414-2.4492-6.0117-4.1641-12.254-5.043-18.684 0.23047 1.6172 0.46094 3.2852 0.64844 4.9023-0.87891-6.7969-0.64844-13.688-0.64844-20.488v-26.082-6.5195c0-9.6641-8.5078-18.961-18.5-18.5-10.035 0.46094-18.5 8.1406-18.5 18.5v30.523c0 14.059-0.046876 28.027 4.5781 41.531 7.3086 21.414 21.875 39.867 41.484 51.336 14.801 8.6484 31.496 12.578 48.559 12.578h68.445c12.902 0 25.852-0.78516 38.016-5.4102 11.422-4.3477 21.414-10.176 30.617-18.223 7.7227-6.707 14.336-15.078 19.285-24.051 5.1797-9.3438 8.8789-19.656 10.359-30.293 0.87891-6.4766 1.2969-12.812 1.2969-19.332v-35.887-2.8672c0-9.6641-8.5078-18.961-18.5-18.5-9.8516 0.55469-18.316 8.2305-18.316 18.59z"/>
  <path d="m376 561.23c9.6641 0 18.961-8.5078 18.5-18.5-0.46094-10.035-8.1406-18.5-18.5-18.5-9.6641 0-18.961 8.5078-18.5 18.5 0.46484 10.035 8.1406 18.5 18.5 18.5z"/>
  <path d="m456.38 533.94h-16-38.199-46.48-40.191c-6.5195 0-13.043-0.09375-19.516 0h-0.27734c-9.6641 0-18.961 8.5078-18.5 18.5 0.46094 10.035 8.1406 18.5 18.5 18.5h16 38.199 46.48 40.191c6.5195 0 13.043 0.09375 19.516 0h0.27734c9.6641 0 18.961-8.5078 18.5-18.5-0.46094-10.035-8.1367-18.5-18.5-18.5z"/>
  <path d="m394.5 548.28v-61.648-8.6484c0-9.6641-8.5078-18.961-18.5-18.5-10.035 0.46094-18.5 8.1406-18.5 18.5v61.648 8.6484c0 9.6641 8.5078 18.961 18.5 18.5 10.039-0.46484 18.5-8.1406 18.5-18.5z"/>
 </g>
</svg>
