<?xml version="1.0" encoding="UTF-8"?>
<svg width="752pt" height="752pt" version="1.1" viewBox="0 0 752 752" xmlns="http://www.w3.org/2000/svg">
 <g fill="#4c25e0">
  <path d="m432.89 321.34v85.422c0 11.191-9.1562 20.348-20.348 20.348h-86.949"/>
  <path d="m423.64 321.34v33.344 46.941 4.6719c0 0.55469 0.09375 2.3125-0.09375 2.3594-0.046875 0 0.37109-1.9414 0.14062-0.87891-0.09375 0.41797-0.14062 0.83203-0.23047 1.2031-0.18359 0.69531-0.41797 1.3867-0.60156 2.082-0.46094 1.5273 0.87891-1.4805-0.14062 0.32422-0.41797 0.69531-0.78516 1.3867-1.25 2.082-1.2031 1.8516 0.87891-0.83203-0.23047 0.27734-0.55469 0.55469-1.1562 1.1562-1.7109 1.7109-1.1094 1.1094 1.6172-0.97266-0.27734 0.23047-0.69531 0.41797-1.3867 0.83203-2.082 1.25-0.046875 0.046875-0.78516 0.41797-0.83203 0.41797-0.14062-0.14062 1.9414-0.64844 0.50781-0.23047-0.69531 0.18359-1.3867 0.46094-2.082 0.60156-0.41797 0.09375-0.83203 0.14062-1.2031 0.23047-1.0156 0.23047 0.87891-0.14062 0.87891-0.14062-0.41797-0.14062-1.4336 0.09375-1.8945 0.09375h-2.9141-44.258c-13.043 0-26.082-0.23047-39.125 0h-0.64844c-4.8555 0-9.4805 4.2539-9.25 9.25 0.23047 4.9961 4.0703 9.25 9.25 9.25h34.039 47.914c6.9844 0 13.734-0.37109 19.98-4.1172 9.6641-5.7812 14.613-16 14.613-27.008v-42.781c0-13.457 0.18359-26.918 0-40.375v-0.73828c0-4.8555-4.2539-9.4805-9.25-9.25-4.9961 0.17969-9.25 4.0195-9.25 9.1992z"/>
  <path d="m319.12 360.51v-145.68c0-11.191 9.1562-20.348 20.348-20.348h73.07c11.191 0 20.348 9.1562 20.348 20.348v31.586z"/>
  <path d="m328.37 360.51v-45.926-76.539-21.414-1.6172c0-0.37109 0-0.73828 0.046874-1.1094 0.09375-1.9414-0.18359 0.18359-0.09375 0.27734-0.09375-0.046876 0.32422-1.6641 0.37109-1.8516 0.14062-0.50781 0.32422-0.97266 0.41797-1.4805 0.60156-2.2188-0.73828 1.2031 0.14062-0.32422 0.50781-0.87891 1.0156-1.7578 1.5273-2.5898 1.1094-1.7578-1.4336 1.4336 0.046875 0 0.41797-0.41797 0.83203-0.87891 1.25-1.2969 0.09375-0.09375 0.87891-0.83203 0.87891-0.78516-0.32422 0.23047-0.60156 0.46094-0.92578 0.69531 0.32422-0.23047 0.64844-0.46094 0.97266-0.69531 0.41797-0.27734 0.83203-0.55469 1.2969-0.78516 0.27734-0.14062 0.50781-0.27734 0.78516-0.41797 0.92578-0.41797 0.73828-0.37109-0.55469 0.18359 0.046875-0.32422 2.543-0.78516 2.9609-0.87891 0.18359-0.046875 0.41797-0.09375 0.60156-0.14062 1.0156-0.18359 0.83203-0.14062-0.60156 0.046875 0.046875-0.14062 1.7578-0.09375 1.8945-0.09375h0.46094c21.504-0.09375 43.012 0 64.516 0 2.6836 0 5.3203-0.046875 8 0h0.09375c0.14062 0 1.8945-0.046875 1.8945 0.09375-0.046875-0.18359-2.1719-0.37109-0.27734 0 0.37109 0.09375 3.1914 0.60156 3.2383 0.97266 0 0.14062-1.8047-0.92578-0.55469-0.18359 0.69531 0.41797 1.4336 0.73828 2.082 1.2031 0.18359 0.09375 0.32422 0.23047 0.50781 0.32422 0.78516 0.60156 0.64844 0.46094-0.41797-0.32422 0.046875 0 0.97266 0.87891 0.87891 0.78516 0.41797 0.41797 0.83203 0.87891 1.25 1.2969 1.3867 1.3867-0.69531-1.2969-0.14063-0.23047 0.50781 0.97266 1.1562 1.8945 1.7109 2.8203 0.97266 1.7109-0.32422-1.4336-0.09375-0.23047 0.14062 0.69531 0.46094 1.3867 0.64844 2.0352 0.046874 0.14062 0.46094 1.7578 0.37109 1.8516-0.14062 0.046874-0.14062-2.4492-0.14062-0.55469 0 0.46094 0.046875 0.92578 0.046875 1.4336v1.6641 7.4922 18.59 3.6992c0.92578-2.1719 1.8047-4.3477 2.7305-6.5195-3.7461 3.793-7.5391 7.5391-11.285 11.332-9.0664 9.0664-18.082 18.129-27.148 27.195-10.961 10.961-21.875 21.969-32.836 32.93-9.4805 9.4805-18.961 19.008-28.441 28.488-4.625 4.625-9.3867 9.1562-13.875 13.922-0.046874 0.09375-0.14062 0.14063-0.18359 0.18359-3.4219 3.4219-3.6992 9.7109 0 13.09 3.6992 3.375 9.4336 3.6523 13.09 0 6.8906-6.8906 13.734-13.781 20.625-20.672 14.523-14.566 29.09-29.137 43.613-43.75 13.09-13.133 26.176-26.27 39.266-39.402l9.4805-9.4805c2.1289-2.1289 3.4688-4.625 3.5156-7.7695 0.09375-3.6992 0-7.3516 0-11.055v-15.445c0-4.3008 0.09375-8.5547-1.1094-12.719-2.7305-9.5273-10.035-16.789-19.238-20.07-3.5625-1.25-7.3984-1.4805-11.145-1.4805h-54.988c-5.3633 0-10.777-0.09375-16.141 0-16.371 0.23047-29.461 13.551-29.598 29.875-0.14062 12.07 0 24.141 0 36.211v63.5 43.52 2.2188c0 4.8555 4.2539 9.4805 9.25 9.25 5.0703-0.32812 9.3281-4.168 9.3281-9.3477z"/>
  <path d="m281.66 408.61v-38.109-5.3633c0-9.6641-8.5078-18.961-18.5-18.5-10.035 0.46094-18.5 8.1406-18.5 18.5v38.109 5.3633c0 9.6641 8.5078 18.961 18.5 18.5 10.035-0.46094 18.5-8.1406 18.5-18.5z"/>
  <path d="m470.35 365.13v41.207c0 3.9766-0.14062 7.9531-0.64844 11.887 0.23047-1.6172 0.46094-3.2852 0.64844-4.9023-0.87891 6.4297-2.543 12.672-5.043 18.684 0.60156-1.4805 1.25-2.9609 1.8516-4.4414-2.543 6.0586-5.8281 11.699-9.8516 16.879 0.97266-1.25 1.9414-2.4961 2.9141-3.7461-3.8867 4.9492-8.3242 9.4336-13.32 13.32 1.25-0.97266 2.4961-1.9414 3.7461-2.9141-5.1797 3.9766-10.82 7.3086-16.879 9.8516 1.4805-0.60156 2.9609-1.25 4.4414-1.8516-6.0117 2.4492-12.254 4.1641-18.684 5.043 1.6172-0.23047 3.2852-0.46094 4.9023-0.64844-4.9023 0.64844-9.8047 0.64844-14.754 0.64844h-19.238-45.508c-5.8281 0-11.656 0.09375-17.48-0.64844 1.6172 0.23047 3.2852 0.46094 4.9023 0.64844-6.4766-0.87891-12.812-2.5898-18.824-5.0859 1.4805 0.60156 2.9609 1.25 4.4414 1.8516-4.4844-1.8945-8.7422-4.207-12.812-6.9375-3.8398-2.5898-9.8984-3.0508-14.246-1.8516-4.3008 1.2031-8.9258 4.4844-11.055 8.5078-4.9023 9.3438-1.9414 19.562 6.6602 25.297 14.844 9.9414 32.883 15.125 50.734 15.215h13.828 53.141c4.3945 0 8.832 0.09375 13.227-0.046875 15.91-0.55469 31.82-5.0859 45.414-13.457 27.238-16.836 44.352-46.895 44.492-78.992 0.046875-14.012 0-28.027 0-41.992v-1.4805c0-9.6641-8.5078-18.961-18.5-18.5-10.035 0.42188-18.5 8.0977-18.5 18.457z"/>
  <path d="m376 565.85c9.6641 0 18.961-8.5078 18.5-18.5-0.46094-10.035-8.1406-18.5-18.5-18.5-9.6641 0-18.961 8.5078-18.5 18.5 0.46484 10.035 8.1406 18.5 18.5 18.5z"/>
  <path d="m456.38 538.56h-16-38.199-46.48-40.191c-6.5195 0-13.043-0.09375-19.516 0h-0.27734c-9.6641 0-18.961 8.5078-18.5 18.5 0.46094 10.035 8.1406 18.5 18.5 18.5h16 38.199 46.48 40.191c6.5195 0 13.043 0.09375 19.516 0h0.27734c9.6641 0 18.961-8.5078 18.5-18.5-0.46094-10.035-8.1367-18.5-18.5-18.5z"/>
  <path d="m394.5 552.9v-61.648-8.6484c0-9.6641-8.5078-18.961-18.5-18.5-10.035 0.46094-18.5 8.1406-18.5 18.5v61.648 8.6484c0 9.6641 8.5078 18.961 18.5 18.5 10.039-0.46484 18.5-8.1406 18.5-18.5z"/>
  <path d="m541.34 184.49c-3.1914 3.1914-6.3828 6.3828-9.5742 9.5742-8.6953 8.6953-17.344 17.344-26.039 26.039-12.812 12.812-25.668 25.668-38.477 38.477-15.586 15.586-31.172 31.172-46.805 46.805-17.066 17.066-34.133 34.133-51.242 51.242l-100.27 100.27c-13.598 13.598-27.148 27.148-40.746 40.746l-29.32 29.32c-4.625 4.625-9.3438 9.25-13.922 13.922l-0.60156 0.60156c-6.8438 6.8438-7.3516 19.426 0 26.176 7.3984 6.7969 18.871 7.3086 26.176 0 3.1914-3.1914 6.3828-6.3828 9.5742-9.5742 8.6953-8.6953 17.344-17.344 26.039-26.039 12.812-12.812 25.668-25.668 38.477-38.477 15.586-15.586 31.172-31.172 46.805-46.805 17.066-17.066 34.133-34.133 51.242-51.242l100.27-100.27c13.598-13.598 27.148-27.148 40.746-40.746 9.7578-9.7578 19.562-19.562 29.32-29.32 4.625-4.625 9.3438-9.25 13.922-13.922l0.60156-0.60156c6.8438-6.8438 7.3516-19.426 0-26.176-7.3984-6.8008-18.824-7.3086-26.176 0z"/>
 </g>
</svg>
