<?xml version="1.0" encoding="UTF-8"?>
<svg width="752pt" height="752pt" version="1.1" viewBox="0 0 752 752" xmlns="http://www.w3.org/2000/svg">
 <path d="m587.15 376c0.19141 13.996-3.4062 27.781-10.402 39.902-6.9961 12.117-17.141 22.125-29.352 28.957l-263.28 152c-12.023 7.1641-25.762 10.945-39.758 10.945s-27.73-3.7812-39.754-10.945c-12.215-6.832-22.355-16.836-29.352-28.957-7-12.121-10.594-25.906-10.406-39.898v-304.01c-0.18359-13.988 3.4141-27.77 10.41-39.883 7-12.117 17.137-22.117 29.348-28.949 12.023-7.1641 25.762-10.941 39.754-10.941 13.996 0 27.734 3.7773 39.758 10.941l263.28 151.98c12.211 6.832 22.355 16.836 29.352 28.957 6.9961 12.121 10.594 25.906 10.402 39.898z" fill="#4c25e0"/>
</svg>
